# xmcd
# 
# Track frame offsets:
#     150
#     19324
#     33224
#     50048
#     63448
#     90843
#     114699
# 
# Disc length: 1699
# 
# Revision: 0
# Processed by: cddbd v1.5.2PL0 Copyright (c) Steve Scherf et al.
# Submitted via: fre:ac v1.0.17
# 
DISCID=5406a107
DTITLE=Olivier Roy - L'Iran - la fin de la révolution islamique ?
DYEAR=2008
DGENRE=Livre audio
TTITLE0=1
TTITLE1=2
TTITLE2=3
TTITLE3=4
TTITLE4=5
TTITLE5=6
TTITLE6=7
EXTD=De Vive Voix
EXTT0=
EXTT1=
EXTT2=
EXTT3=
EXTT4=
EXTT5=
EXTT6=
PLAYORDER=
